<svg width="255" height="217" viewBox="0 0 255 217" fill="none" xmlns="http://www.w3.org/2000/svg">
<g opacity="0.5" filter="url(#filter0_f_314_12)">
<path d="M171.643 58.8194C167.232 63.8242 161.017 67.27 153.864 68.0689C138.594 69.7746 124.832 58.7788 123.127 43.5084C122.329 36.3636 124.311 29.5486 128.212 24.145C116.22 22.265 104.774 24.4415 93.9132 27.873C91.942 28.7018 89.7385 28.7992 87.7008 28.1447C85.7817 27.3638 83.6985 27.0652 81.6387 27.2775C74.6744 27.988 69.6046 34.2121 70.3151 41.1764C70.6015 45.3729 74.7705 48.9216 73.6185 53.0727C67.9483 102.942 108.093 135.027 155.501 118.5C159.329 116.46 163.675 119.743 167.833 119.097C169.885 118.848 171.845 118.099 173.543 116.918C179.291 112.92 180.71 105.016 176.712 99.2677C175.624 97.4227 175.232 95.2501 175.605 93.1407C176.552 81.7728 176.139 70.1126 171.645 58.8212L171.643 58.8194Z" stroke="#FFC700" stroke-opacity="0.73" stroke-width="17" stroke-linecap="round" stroke-linejoin="round"/>
</g>
<path d="M171.643 58.8194C167.232 63.8242 161.017 67.27 153.864 68.0689C138.594 69.7746 124.832 58.7788 123.127 43.5084C122.329 36.3636 124.311 29.5486 128.212 24.145C116.22 22.265 104.774 24.4415 93.9132 27.873C91.942 28.7018 89.7385 28.7992 87.7008 28.1447C85.7817 27.3638 83.6985 27.0652 81.6387 27.2775C74.6744 27.988 69.6046 34.2121 70.3151 41.1764C70.6015 45.3729 74.7705 48.9216 73.6185 53.0727C67.9483 102.942 108.093 135.027 155.501 118.5C159.329 116.46 163.675 119.743 167.833 119.097C169.885 118.848 171.845 118.099 173.543 116.918C179.291 112.92 180.71 105.016 176.712 99.2677C175.624 97.4227 175.232 95.2501 175.605 93.1407C176.552 81.7728 176.139 70.1126 171.645 58.8212L171.643 58.8194Z" stroke="#FFC700" stroke-width="6" stroke-linecap="round" stroke-linejoin="round"/>
<path d="M171.643 58.8194C167.232 63.8242 161.017 67.27 153.864 68.0689C138.594 69.7746 124.832 58.7788 123.127 43.5084C122.329 36.3636 124.311 29.5486 128.212 24.145C116.22 22.265 104.774 24.4415 93.9132 27.873C91.942 28.7018 89.7385 28.7992 87.7008 28.1447C85.7817 27.3638 83.6985 27.0652 81.6387 27.2775C74.6744 27.988 69.6046 34.2121 70.3151 41.1764C70.6015 45.3729 74.7705 48.9216 73.6185 53.0727C67.9483 102.942 108.093 135.027 155.501 118.5C159.329 116.46 163.675 119.743 167.833 119.097C169.885 118.848 171.845 118.099 173.543 116.918C179.291 112.92 180.71 105.016 176.712 99.2677C175.624 97.4227 175.232 95.2501 175.605 93.1407C176.552 81.7728 176.139 70.1126 171.645 58.8212L171.643 58.8194Z" stroke="white" stroke-width="4" stroke-linecap="round" stroke-linejoin="round"/>
<g filter="url(#filter1_d_314_12)">
<path d="M84.7143 142.968L82.9354 142.171C82.1338 141.815 81.437 141.259 80.9117 140.556C80.3863 139.854 80.05 139.029 79.935 138.159L79.6723 136.227C79.655 136.158 79.6177 136.096 79.565 136.049C79.5124 136.001 79.4468 135.971 79.3766 135.961C79.3064 135.95 79.2348 135.961 79.1709 135.992C79.107 136.023 79.0536 136.072 79.0176 136.133L78.2198 137.912C77.8637 138.713 77.3079 139.41 76.6055 139.935C75.9031 140.461 75.0777 140.797 74.2081 140.912L72.2762 141.175C72.2021 141.185 72.1332 141.219 72.08 141.271C72.0269 141.324 71.9923 141.392 71.9816 141.466C71.971 141.541 71.9847 141.616 72.0208 141.682C72.057 141.747 72.1135 141.799 72.1818 141.83L73.9608 142.627C74.7624 142.983 75.4592 143.539 75.9845 144.242C76.5098 144.944 76.8461 145.769 76.9612 146.639L77.2238 148.571C77.2338 148.645 77.2676 148.714 77.3203 148.767C77.3729 148.82 77.4415 148.855 77.5155 148.865C77.5896 148.876 77.6651 148.862 77.7306 148.826C77.7961 148.79 77.8481 148.734 77.8786 148.665L78.6764 146.886C79.0325 146.085 79.5883 145.388 80.2906 144.863C80.993 144.337 81.8185 144.001 82.688 143.886L84.6199 143.623C84.6941 143.613 84.7629 143.579 84.8161 143.527C84.8693 143.474 84.9038 143.406 84.9145 143.332C84.9252 143.258 84.9114 143.182 84.8753 143.116C84.8392 143.051 84.7827 142.999 84.7143 142.968Z" fill="white"/>
<path d="M71.9775 142.286C71.81 142.211 71.6716 142.084 71.583 141.923C71.4943 141.762 71.4605 141.577 71.4868 141.395C71.513 141.213 71.5977 141.045 71.7282 140.916C71.8586 140.787 72.0274 140.704 72.2092 140.679L72.2089 140.679L72.2762 141.175L72.2098 140.679L71.9775 142.286ZM71.9775 142.286C71.9777 142.286 71.9778 142.286 71.978 142.286L73.7562 143.084L73.7578 143.084C74.4812 143.406 75.11 143.907 75.5841 144.541C76.0582 145.175 76.3616 145.92 76.4655 146.705L76.4657 146.706L71.9775 142.286ZM83.14 141.714L83.1383 141.714L84.6199 143.623C84.6941 143.613 84.7629 143.579 84.8161 143.527C84.8693 143.474 84.9038 143.406 84.9145 143.332C84.9252 143.257 84.9114 143.182 84.8753 143.116C84.8392 143.051 84.7827 142.999 84.7143 142.968L84.9189 142.512L84.9184 142.512C84.9183 142.512 84.9182 142.512 84.9181 142.512L83.14 141.714Z" stroke="#D529FF"/>
</g>
<g filter="url(#filter2_d_314_12)">
<mask id="path-6-outside-1_314_12" maskUnits="userSpaceOnUse" x="7.01796" y="123.82" width="242.074" height="77.4813" fill="black">
<rect fill="white" x="7.01796" y="123.82" width="242.074" height="77.4813"/>
<path d="M95.8356 176.795C89.2115 177.326 85.3482 173.996 84.856 167.853C84.1963 159.619 89.019 152.48 97.6478 151.789C104.315 151.256 108.018 154.774 108.49 160.655C109.121 168.541 104.726 176.084 95.8356 176.795ZM96.1732 171.156C100.139 170.838 102.251 166.548 101.888 162.017C101.626 158.749 99.9284 157.263 97.3137 157.472C93.3043 157.793 91.1379 161.957 91.501 166.488C91.7802 169.973 93.5584 171.365 96.1732 171.156Z"/>
<path d="M65.4927 189.046C63.0959 189.238 61.2707 188.902 59.5815 188.072L57.6284 181.213C60.1579 182.677 61.9029 183.107 64.2998 182.915C68.1784 182.605 70.0329 180.571 70.7351 176.744L73.8573 159.876C71.0804 160.8 68.5808 162.447 65.0652 166.192L66.4991 158.361C69.5546 155.441 72.3697 153.901 75.9433 153.615C79.1246 153.36 80.5663 154.384 80.7443 156.606C80.7932 157.216 80.7148 157.88 80.5998 158.635L77.6102 176.062C76.1641 184.289 72.5526 188.481 65.4927 189.046Z"/>
<path d="M48.2413 175.826C45.606 180.159 43.7584 181.184 41.4922 181.365C38.8774 181.574 36.911 180.022 36.6247 176.449C36.5375 175.36 36.7169 173.767 37.0165 172.033L39.7449 156.819L46.1075 156.31L43.5517 170.94C43.3478 172.228 43.2032 173.16 43.2591 173.857C43.3149 174.554 43.5207 174.933 44.1308 174.884C44.7845 174.831 45.3126 174.307 47.2787 171.475L52.4692 164L53.9518 155.682L60.5324 155.155L57.8213 169.491C57.3997 171.892 57.3544 172.422 57.3894 172.858C57.4417 173.511 57.7677 173.748 58.465 173.692C59.293 173.626 60.2639 173.154 61.925 171.442L60.8152 177.845C59.2134 179.201 57.5992 179.856 55.7253 180.006C52.5876 180.258 50.9732 178.721 50.7533 175.976C50.666 174.887 50.8559 173.425 51.1782 171.426L51.2705 170.936L48.2413 175.826Z"/>
<path d="M27.7241 178.784C27.2247 188.427 23.6393 192.397 16.6666 192.955C14.7055 193.112 12.9274 192.816 11.1144 192.084L9.27645 185.566C11.3788 186.626 13.8176 186.957 15.6044 186.814C19.483 186.503 20.7623 184.954 21.046 180.283L21.9893 164.686L14.0578 165.321L14.9969 160.072L22.2747 159.49L22.3321 158.564C22.8525 150.279 27.212 147.212 33.531 146.706C35.3614 146.559 37.4375 146.744 38.914 147.108L38.7856 153.169C37.269 152.852 35.7629 152.666 34.0633 152.802C30.7077 153.071 29.0797 154.648 28.8308 158.658L28.8116 158.966L37.8762 158.241L36.9807 163.486L28.5262 164.163L27.7241 178.784Z"/>
<path d="M135.336 166.127L135.593 169.329C135.615 169.603 135.541 169.839 135.327 170.041C133.744 171.548 130.737 173.677 125.978 174.058C119.16 174.604 114.216 170.948 113.586 163.08C112.955 155.212 117.933 150.67 124.431 150.149C128.321 149.838 131.493 150.919 133.684 152.401C133.927 152.566 134.037 152.787 134.059 153.062L134.371 156.95C134.385 157.133 134.263 157.327 134.083 157.387L133.369 157.675C133.148 157.785 133 157.658 132.932 157.388C132.13 154.275 128.577 153.04 124.779 153.344C119.151 153.795 116.036 157.451 116.468 162.849C116.908 168.338 120.093 171.306 125.905 170.841C130.389 170.482 133.262 168.41 134.068 165.814C134.102 165.673 134.282 165.613 134.423 165.647L135.082 165.825C135.223 165.859 135.325 165.989 135.336 166.127Z"/>
<path d="M151.724 171.997C143.213 172.678 139.562 167.354 139.053 160.995C138.544 154.636 141.3 148.799 149.811 148.118C158.322 147.436 161.972 152.761 162.481 159.119C162.991 165.478 160.235 171.315 151.724 171.997ZM159.599 159.35C159.236 154.821 157.022 150.763 150.113 151.316C143.112 151.877 141.573 156.235 141.936 160.764C142.299 165.293 144.512 169.351 151.513 168.791C158.423 168.238 159.961 163.879 159.599 159.35Z"/>
<path d="M191.878 168.23L190.323 168.354C189.682 168.405 189.515 168.05 189.349 167.696L186.784 162.698L186.506 162.675C185.737 166.88 182.176 169.559 177.737 169.914C172.704 170.317 167.366 166.923 166.721 158.872C166.083 150.912 171.34 146.394 176.556 145.976C180.857 145.632 184.467 148.152 185.443 150.56L185.763 150.534L184.902 139.784L178.313 140.311C177.672 140.363 177.471 140.148 177.427 139.599L177.295 137.953C177.251 137.404 177.507 137.153 177.965 137.116L186.659 136.42C187.116 136.384 187.409 136.59 187.453 137.139L189.425 161.75L192.319 167.412C192.589 167.897 192.336 168.193 191.878 168.23ZM186.5 157.427C186.122 152.715 182.445 148.774 176.999 149.21C171.28 149.668 169.318 155.073 169.608 158.687C169.978 163.307 173 167.117 178.491 166.677C182.838 166.329 186.863 161.956 186.5 157.427Z"/>
<path d="M215.918 160.09L216.174 163.292C216.196 163.567 216.123 163.803 215.909 164.004C214.154 165.664 211.377 167.221 207.579 167.525C201.676 167.998 195.634 164.43 194.989 156.379C194.373 148.694 199.077 144.174 205.3 143.675C212.347 143.111 215.938 147.704 216.375 153.148L216.543 155.252C216.569 155.572 216.358 155.819 216.038 155.845L197.963 157.292C198.72 162.71 203.067 164.664 207.323 164.323C210.709 164.052 213.932 162.321 215.015 159.748C215.05 159.607 215.187 159.596 215.283 159.634L215.713 159.83C215.857 159.911 215.907 159.953 215.918 160.09ZM197.679 154.322L213.649 153.043C213.294 148.606 209.858 146.533 205.374 146.892C200.203 147.306 197.897 150.713 197.679 154.322Z"/>
<path d="M246.038 163.894L244.482 164.018C243.842 164.07 243.675 163.715 243.508 163.36L240.944 158.363L240.665 158.339C239.897 162.544 236.335 165.223 231.897 165.578C226.863 165.981 221.526 162.587 220.881 154.536C220.243 146.577 225.499 142.058 230.716 141.641C235.017 141.296 238.627 143.816 239.603 146.224L239.923 146.198L239.062 135.448L232.472 135.975C231.832 136.027 231.63 135.813 231.586 135.264L231.454 133.617C231.41 133.068 231.667 132.817 232.124 132.781L240.818 132.085C241.276 132.048 241.569 132.255 241.613 132.804L243.585 157.415L246.479 163.076C246.748 163.561 246.496 163.857 246.038 163.894ZM240.659 153.091C240.282 148.379 236.604 144.438 231.159 144.874C225.439 145.332 223.478 150.737 223.767 154.351C224.137 158.971 227.16 162.781 232.651 162.341C236.998 161.993 241.022 157.62 240.659 153.091Z"/>
</mask>
<path d="M95.8356 176.795C89.2115 177.326 85.3482 173.996 84.856 167.853C84.1963 159.619 89.019 152.48 97.6478 151.789C104.315 151.256 108.018 154.774 108.49 160.655C109.121 168.541 104.726 176.084 95.8356 176.795ZM96.1732 171.156C100.139 170.838 102.251 166.548 101.888 162.017C101.626 158.749 99.9284 157.263 97.3137 157.472C93.3043 157.793 91.1379 161.957 91.501 166.488C91.7802 169.973 93.5584 171.365 96.1732 171.156Z" fill="white"/>
<path d="M65.4927 189.046C63.0959 189.238 61.2707 188.902 59.5815 188.072L57.6284 181.213C60.1579 182.677 61.9029 183.107 64.2998 182.915C68.1784 182.605 70.0329 180.571 70.7351 176.744L73.8573 159.876C71.0804 160.8 68.5808 162.447 65.0652 166.192L66.4991 158.361C69.5546 155.441 72.3697 153.901 75.9433 153.615C79.1246 153.36 80.5663 154.384 80.7443 156.606C80.7932 157.216 80.7148 157.88 80.5998 158.635L77.6102 176.062C76.1641 184.289 72.5526 188.481 65.4927 189.046Z" fill="white"/>
<path d="M48.2413 175.826C45.606 180.159 43.7584 181.184 41.4922 181.365C38.8774 181.574 36.911 180.022 36.6247 176.449C36.5375 175.36 36.7169 173.767 37.0165 172.033L39.7449 156.819L46.1075 156.31L43.5517 170.94C43.3478 172.228 43.2032 173.16 43.2591 173.857C43.3149 174.554 43.5207 174.933 44.1308 174.884C44.7845 174.831 45.3126 174.307 47.2787 171.475L52.4692 164L53.9518 155.682L60.5324 155.155L57.8213 169.491C57.3997 171.892 57.3544 172.422 57.3894 172.858C57.4417 173.511 57.7677 173.748 58.465 173.692C59.293 173.626 60.2639 173.154 61.925 171.442L60.8152 177.845C59.2134 179.201 57.5992 179.856 55.7253 180.006C52.5876 180.258 50.9732 178.721 50.7533 175.976C50.666 174.887 50.8559 173.425 51.1782 171.426L51.2705 170.936L48.2413 175.826Z" fill="white"/>
<path d="M27.7241 178.784C27.2247 188.427 23.6393 192.397 16.6666 192.955C14.7055 193.112 12.9274 192.816 11.1144 192.084L9.27645 185.566C11.3788 186.626 13.8176 186.957 15.6044 186.814C19.483 186.503 20.7623 184.954 21.046 180.283L21.9893 164.686L14.0578 165.321L14.9969 160.072L22.2747 159.49L22.3321 158.564C22.8525 150.279 27.212 147.212 33.531 146.706C35.3614 146.559 37.4375 146.744 38.914 147.108L38.7856 153.169C37.269 152.852 35.7629 152.666 34.0633 152.802C30.7077 153.071 29.0797 154.648 28.8308 158.658L28.8116 158.966L37.8762 158.241L36.9807 163.486L28.5262 164.163L27.7241 178.784Z" fill="white"/>
<path d="M135.336 166.127L135.593 169.329C135.615 169.603 135.541 169.839 135.327 170.041C133.744 171.548 130.737 173.677 125.978 174.058C119.16 174.604 114.216 170.948 113.586 163.08C112.955 155.212 117.933 150.67 124.431 150.149C128.321 149.838 131.493 150.919 133.684 152.401C133.927 152.566 134.037 152.787 134.059 153.062L134.371 156.95C134.385 157.133 134.263 157.327 134.083 157.387L133.369 157.675C133.148 157.785 133 157.658 132.932 157.388C132.13 154.275 128.577 153.04 124.779 153.344C119.151 153.795 116.036 157.451 116.468 162.849C116.908 168.338 120.093 171.306 125.905 170.841C130.389 170.482 133.262 168.41 134.068 165.814C134.102 165.673 134.282 165.613 134.423 165.647L135.082 165.825C135.223 165.859 135.325 165.989 135.336 166.127Z" fill="white"/>
<path d="M151.724 171.997C143.213 172.678 139.562 167.354 139.053 160.995C138.544 154.636 141.3 148.799 149.811 148.118C158.322 147.436 161.972 152.761 162.481 159.119C162.991 165.478 160.235 171.315 151.724 171.997ZM159.599 159.35C159.236 154.821 157.022 150.763 150.113 151.316C143.112 151.877 141.573 156.235 141.936 160.764C142.299 165.293 144.512 169.351 151.513 168.791C158.423 168.238 159.961 163.879 159.599 159.35Z" fill="white"/>
<path d="M191.878 168.23L190.323 168.354C189.682 168.405 189.515 168.05 189.349 167.696L186.784 162.698L186.506 162.675C185.737 166.88 182.176 169.559 177.737 169.914C172.704 170.317 167.366 166.923 166.721 158.872C166.083 150.912 171.34 146.394 176.556 145.976C180.857 145.632 184.467 148.152 185.443 150.56L185.763 150.534L184.902 139.784L178.313 140.311C177.672 140.363 177.471 140.148 177.427 139.599L177.295 137.953C177.251 137.404 177.507 137.153 177.965 137.116L186.659 136.42C187.116 136.384 187.409 136.59 187.453 137.139L189.425 161.75L192.319 167.412C192.589 167.897 192.336 168.193 191.878 168.23ZM186.5 157.427C186.122 152.715 182.445 148.774 176.999 149.21C171.28 149.668 169.318 155.073 169.608 158.687C169.978 163.307 173 167.117 178.491 166.677C182.838 166.329 186.863 161.956 186.5 157.427Z" fill="white"/>
<path d="M215.918 160.09L216.174 163.292C216.196 163.567 216.123 163.803 215.909 164.004C214.154 165.664 211.377 167.221 207.579 167.525C201.676 167.998 195.634 164.43 194.989 156.379C194.373 148.694 199.077 144.174 205.3 143.675C212.347 143.111 215.938 147.704 216.375 153.148L216.543 155.252C216.569 155.572 216.358 155.819 216.038 155.845L197.963 157.292C198.72 162.71 203.067 164.664 207.323 164.323C210.709 164.052 213.932 162.321 215.015 159.748C215.05 159.607 215.187 159.596 215.283 159.634L215.713 159.83C215.857 159.911 215.907 159.953 215.918 160.09ZM197.679 154.322L213.649 153.043C213.294 148.606 209.858 146.533 205.374 146.892C200.203 147.306 197.897 150.713 197.679 154.322Z" fill="white"/>
<path d="M246.038 163.894L244.482 164.018C243.842 164.07 243.675 163.715 243.508 163.36L240.944 158.363L240.665 158.339C239.897 162.544 236.335 165.223 231.897 165.578C226.863 165.981 221.526 162.587 220.881 154.536C220.243 146.577 225.499 142.058 230.716 141.641C235.017 141.296 238.627 143.816 239.603 146.224L239.923 146.198L239.062 135.448L232.472 135.975C231.832 136.027 231.63 135.813 231.586 135.264L231.454 133.617C231.41 133.068 231.667 132.817 232.124 132.781L240.818 132.085C241.276 132.048 241.569 132.255 241.613 132.804L243.585 157.415L246.479 163.076C246.748 163.561 246.496 163.857 246.038 163.894ZM240.659 153.091C240.282 148.379 236.604 144.438 231.159 144.874C225.439 145.332 223.478 150.737 223.767 154.351C224.137 158.971 227.16 162.781 232.651 162.341C236.998 161.993 241.022 157.62 240.659 153.091Z" fill="white"/>
<path d="M95.8356 176.795C89.2115 177.326 85.3482 173.996 84.856 167.853C84.1963 159.619 89.019 152.48 97.6478 151.789C104.315 151.256 108.018 154.774 108.49 160.655C109.121 168.541 104.726 176.084 95.8356 176.795ZM96.1732 171.156C100.139 170.838 102.251 166.548 101.888 162.017C101.626 158.749 99.9284 157.263 97.3137 157.472C93.3043 157.793 91.1379 161.957 91.501 166.488C91.7802 169.973 93.5584 171.365 96.1732 171.156Z" stroke="#D529FF" stroke-width="2" mask="url(#path-6-outside-1_314_12)"/>
<path d="M65.4927 189.046C63.0959 189.238 61.2707 188.902 59.5815 188.072L57.6284 181.213C60.1579 182.677 61.9029 183.107 64.2998 182.915C68.1784 182.605 70.0329 180.571 70.7351 176.744L73.8573 159.876C71.0804 160.8 68.5808 162.447 65.0652 166.192L66.4991 158.361C69.5546 155.441 72.3697 153.901 75.9433 153.615C79.1246 153.36 80.5663 154.384 80.7443 156.606C80.7932 157.216 80.7148 157.88 80.5998 158.635L77.6102 176.062C76.1641 184.289 72.5526 188.481 65.4927 189.046Z" stroke="#D529FF" stroke-width="2" mask="url(#path-6-outside-1_314_12)"/>
<path d="M48.2413 175.826C45.606 180.159 43.7584 181.184 41.4922 181.365C38.8774 181.574 36.911 180.022 36.6247 176.449C36.5375 175.36 36.7169 173.767 37.0165 172.033L39.7449 156.819L46.1075 156.31L43.5517 170.94C43.3478 172.228 43.2032 173.16 43.2591 173.857C43.3149 174.554 43.5207 174.933 44.1308 174.884C44.7845 174.831 45.3126 174.307 47.2787 171.475L52.4692 164L53.9518 155.682L60.5324 155.155L57.8213 169.491C57.3997 171.892 57.3544 172.422 57.3894 172.858C57.4417 173.511 57.7677 173.748 58.465 173.692C59.293 173.626 60.2639 173.154 61.925 171.442L60.8152 177.845C59.2134 179.201 57.5992 179.856 55.7253 180.006C52.5876 180.258 50.9732 178.721 50.7533 175.976C50.666 174.887 50.8559 173.425 51.1782 171.426L51.2705 170.936L48.2413 175.826Z" stroke="#D529FF" stroke-width="2" mask="url(#path-6-outside-1_314_12)"/>
<path d="M27.7241 178.784C27.2247 188.427 23.6393 192.397 16.6666 192.955C14.7055 193.112 12.9274 192.816 11.1144 192.084L9.27645 185.566C11.3788 186.626 13.8176 186.957 15.6044 186.814C19.483 186.503 20.7623 184.954 21.046 180.283L21.9893 164.686L14.0578 165.321L14.9969 160.072L22.2747 159.49L22.3321 158.564C22.8525 150.279 27.212 147.212 33.531 146.706C35.3614 146.559 37.4375 146.744 38.914 147.108L38.7856 153.169C37.269 152.852 35.7629 152.666 34.0633 152.802C30.7077 153.071 29.0797 154.648 28.8308 158.658L28.8116 158.966L37.8762 158.241L36.9807 163.486L28.5262 164.163L27.7241 178.784Z" stroke="#D529FF" stroke-width="2" mask="url(#path-6-outside-1_314_12)"/>
<path d="M135.336 166.127L135.593 169.329C135.615 169.603 135.541 169.839 135.327 170.041C133.744 171.548 130.737 173.677 125.978 174.058C119.16 174.604 114.216 170.948 113.586 163.08C112.955 155.212 117.933 150.67 124.431 150.149C128.321 149.838 131.493 150.919 133.684 152.401C133.927 152.566 134.037 152.787 134.059 153.062L134.371 156.95C134.385 157.133 134.263 157.327 134.083 157.387L133.369 157.675C133.148 157.785 133 157.658 132.932 157.388C132.13 154.275 128.577 153.04 124.779 153.344C119.151 153.795 116.036 157.451 116.468 162.849C116.908 168.338 120.093 171.306 125.905 170.841C130.389 170.482 133.262 168.41 134.068 165.814C134.102 165.673 134.282 165.613 134.423 165.647L135.082 165.825C135.223 165.859 135.325 165.989 135.336 166.127Z" stroke="#D529FF" stroke-width="2" mask="url(#path-6-outside-1_314_12)"/>
<path d="M151.724 171.997C143.213 172.678 139.562 167.354 139.053 160.995C138.544 154.636 141.3 148.799 149.811 148.118C158.322 147.436 161.972 152.761 162.481 159.119C162.991 165.478 160.235 171.315 151.724 171.997ZM159.599 159.35C159.236 154.821 157.022 150.763 150.113 151.316C143.112 151.877 141.573 156.235 141.936 160.764C142.299 165.293 144.512 169.351 151.513 168.791C158.423 168.238 159.961 163.879 159.599 159.35Z" stroke="#D529FF" stroke-width="2" mask="url(#path-6-outside-1_314_12)"/>
<path d="M191.878 168.23L190.323 168.354C189.682 168.405 189.515 168.05 189.349 167.696L186.784 162.698L186.506 162.675C185.737 166.88 182.176 169.559 177.737 169.914C172.704 170.317 167.366 166.923 166.721 158.872C166.083 150.912 171.34 146.394 176.556 145.976C180.857 145.632 184.467 148.152 185.443 150.56L185.763 150.534L184.902 139.784L178.313 140.311C177.672 140.363 177.471 140.148 177.427 139.599L177.295 137.953C177.251 137.404 177.507 137.153 177.965 137.116L186.659 136.42C187.116 136.384 187.409 136.59 187.453 137.139L189.425 161.75L192.319 167.412C192.589 167.897 192.336 168.193 191.878 168.23ZM186.5 157.427C186.122 152.715 182.445 148.774 176.999 149.21C171.28 149.668 169.318 155.073 169.608 158.687C169.978 163.307 173 167.117 178.491 166.677C182.838 166.329 186.863 161.956 186.5 157.427Z" stroke="#D529FF" stroke-width="2" mask="url(#path-6-outside-1_314_12)"/>
<path d="M215.918 160.09L216.174 163.292C216.196 163.567 216.123 163.803 215.909 164.004C214.154 165.664 211.377 167.221 207.579 167.525C201.676 167.998 195.634 164.43 194.989 156.379C194.373 148.694 199.077 144.174 205.3 143.675C212.347 143.111 215.938 147.704 216.375 153.148L216.543 155.252C216.569 155.572 216.358 155.819 216.038 155.845L197.963 157.292C198.72 162.71 203.067 164.664 207.323 164.323C210.709 164.052 213.932 162.321 215.015 159.748C215.05 159.607 215.187 159.596 215.283 159.634L215.713 159.83C215.857 159.911 215.907 159.953 215.918 160.09ZM197.679 154.322L213.649 153.043C213.294 148.606 209.858 146.533 205.374 146.892C200.203 147.306 197.897 150.713 197.679 154.322Z" stroke="#D529FF" stroke-width="2" mask="url(#path-6-outside-1_314_12)"/>
<path d="M246.038 163.894L244.482 164.018C243.842 164.07 243.675 163.715 243.508 163.36L240.944 158.363L240.665 158.339C239.897 162.544 236.335 165.223 231.897 165.578C226.863 165.981 221.526 162.587 220.881 154.536C220.243 146.577 225.499 142.058 230.716 141.641C235.017 141.296 238.627 143.816 239.603 146.224L239.923 146.198L239.062 135.448L232.472 135.975C231.832 136.027 231.63 135.813 231.586 135.264L231.454 133.617C231.41 133.068 231.667 132.817 232.124 132.781L240.818 132.085C241.276 132.048 241.569 132.255 241.613 132.804L243.585 157.415L246.479 163.076C246.748 163.561 246.496 163.857 246.038 163.894ZM240.659 153.091C240.282 148.379 236.604 144.438 231.159 144.874C225.439 145.332 223.478 150.737 223.767 154.351C224.137 158.971 227.16 162.781 232.651 162.341C236.998 161.993 241.022 157.62 240.659 153.091Z" stroke="#D529FF" stroke-width="2" mask="url(#path-6-outside-1_314_12)"/>
</g>
<g filter="url(#filter3_d_314_12)">
<mask id="path-7-outside-2_314_12" maskUnits="userSpaceOnUse" x="195.364" y="184.481" width="41.3083" height="19.6309" fill="black">
<rect fill="white" x="195.364" y="184.481" width="41.3083" height="19.6309"/>
<path d="M208.015 199.579L197.351 198.588C197.136 198.568 197.054 198.47 197.074 198.255L197.194 196.965C197.214 196.75 197.312 196.668 197.527 196.688L199.212 196.845L200.024 188.098L198.34 187.942C198.125 187.922 198.043 187.824 198.063 187.609L198.183 186.318C198.203 186.103 198.301 186.022 198.516 186.042L203.857 186.538C204.054 186.557 204.153 186.656 204.133 186.871L204.014 188.162C203.994 188.377 203.896 188.458 203.663 188.436L201.924 188.275L201.112 197.021L206.596 197.531L207.371 194.638C207.422 194.48 207.504 194.379 207.754 194.402L208.436 194.466C208.686 194.489 208.768 194.587 208.748 194.802L208.33 199.301C208.317 199.444 208.248 199.6 208.015 199.579ZM220.424 200.731L209.76 199.741C209.545 199.721 209.464 199.623 209.484 199.408L209.604 198.117C209.624 197.902 209.722 197.821 209.937 197.841L211.621 197.997L212.434 189.251L210.749 189.095C210.534 189.075 210.453 188.977 210.473 188.762L210.593 187.471C210.613 187.256 210.71 187.175 210.926 187.195L216.267 187.691C216.464 187.709 216.563 187.809 216.543 188.024L216.423 189.314C216.403 189.529 216.305 189.611 216.072 189.589L214.334 189.428L213.521 198.174L219.006 198.683L219.781 195.791C219.831 195.633 219.913 195.532 220.164 195.555L220.845 195.618C221.096 195.642 221.177 195.739 221.157 195.955L220.739 200.453C220.726 200.597 220.657 200.753 220.424 200.731ZM234.343 197.686L234.142 199.854C234.132 199.962 234.102 200.086 234.024 200.151C233.288 200.878 231.325 201.961 228.511 201.699C224.729 201.348 222.287 198.843 222.681 194.596C223.061 190.509 225.883 188.349 229.879 188.72C232.819 188.993 234.38 190.675 234.786 191.165C234.916 191.321 234.926 191.413 234.918 191.502L234.668 194.191C234.658 194.298 234.598 194.365 234.487 194.391L233.877 194.533C233.729 194.573 233.665 194.477 233.638 194.384C233.409 191.977 231.736 190.917 229.621 190.721C227.327 190.508 224.884 191.51 224.584 194.736C224.286 197.944 226.405 199.461 228.735 199.677C231.173 199.904 232.967 199.076 233.654 197.513C233.698 197.427 233.754 197.414 233.826 197.42L234.231 197.53C234.319 197.557 234.352 197.596 234.343 197.686Z"/>
</mask>
<path d="M208.015 199.579L197.351 198.588C197.136 198.568 197.054 198.47 197.074 198.255L197.194 196.965C197.214 196.75 197.312 196.668 197.527 196.688L199.212 196.845L200.024 188.098L198.34 187.942C198.125 187.922 198.043 187.824 198.063 187.609L198.183 186.318C198.203 186.103 198.301 186.022 198.516 186.042L203.857 186.538C204.054 186.557 204.153 186.656 204.133 186.871L204.014 188.162C203.994 188.377 203.896 188.458 203.663 188.436L201.924 188.275L201.112 197.021L206.596 197.531L207.371 194.638C207.422 194.48 207.504 194.379 207.754 194.402L208.436 194.466C208.686 194.489 208.768 194.587 208.748 194.802L208.33 199.301C208.317 199.444 208.248 199.6 208.015 199.579ZM220.424 200.731L209.76 199.741C209.545 199.721 209.464 199.623 209.484 199.408L209.604 198.117C209.624 197.902 209.722 197.821 209.937 197.841L211.621 197.997L212.434 189.251L210.749 189.095C210.534 189.075 210.453 188.977 210.473 188.762L210.593 187.471C210.613 187.256 210.71 187.175 210.926 187.195L216.267 187.691C216.464 187.709 216.563 187.809 216.543 188.024L216.423 189.314C216.403 189.529 216.305 189.611 216.072 189.589L214.334 189.428L213.521 198.174L219.006 198.683L219.781 195.791C219.831 195.633 219.913 195.532 220.164 195.555L220.845 195.618C221.096 195.642 221.177 195.739 221.157 195.955L220.739 200.453C220.726 200.597 220.657 200.753 220.424 200.731ZM234.343 197.686L234.142 199.854C234.132 199.962 234.102 200.086 234.024 200.151C233.288 200.878 231.325 201.961 228.511 201.699C224.729 201.348 222.287 198.843 222.681 194.596C223.061 190.509 225.883 188.349 229.879 188.72C232.819 188.993 234.38 190.675 234.786 191.165C234.916 191.321 234.926 191.413 234.918 191.502L234.668 194.191C234.658 194.298 234.598 194.365 234.487 194.391L233.877 194.533C233.729 194.573 233.665 194.477 233.638 194.384C233.409 191.977 231.736 190.917 229.621 190.721C227.327 190.508 224.884 191.51 224.584 194.736C224.286 197.944 226.405 199.461 228.735 199.677C231.173 199.904 232.967 199.076 233.654 197.513C233.698 197.427 233.754 197.414 233.826 197.42L234.231 197.53C234.319 197.557 234.352 197.596 234.343 197.686Z" fill="white"/>
<path d="M199.212 196.845L199.119 197.84L200.115 197.933L200.208 196.937L199.212 196.845ZM200.024 188.098L201.02 188.191L201.113 187.195L200.117 187.103L200.024 188.098ZM201.924 188.275L202.017 187.279L201.021 187.187L200.928 188.182L201.924 188.275ZM201.112 197.021L200.116 196.929L200.024 197.924L201.019 198.017L201.112 197.021ZM206.596 197.531L206.504 198.526L207.344 198.604L207.562 197.789L206.596 197.531ZM207.371 194.638L206.419 194.332L206.412 194.355L206.405 194.379L207.371 194.638ZM208.107 198.583L197.443 197.592L197.258 199.584L207.922 200.574L208.107 198.583ZM197.443 197.592C197.444 197.592 197.69 197.611 197.894 197.856C198.098 198.101 198.07 198.347 198.07 198.348L196.079 198.163C196.059 198.378 196.062 198.78 196.355 199.133C196.648 199.487 197.043 199.564 197.258 199.584L197.443 197.592ZM198.07 198.348L198.19 197.057L196.199 196.872L196.079 198.163L198.07 198.348ZM198.19 197.057C198.19 197.058 198.172 197.304 197.926 197.508C197.681 197.711 197.435 197.684 197.435 197.684L197.62 195.693C197.404 195.673 197.002 195.676 196.649 195.969C196.296 196.262 196.219 196.656 196.199 196.872L198.19 197.057ZM197.435 197.684L199.119 197.84L199.304 195.849L197.62 195.693L197.435 197.684ZM200.208 196.937L201.02 188.191L199.029 188.006L198.216 196.752L200.208 196.937ZM200.117 187.103L198.432 186.946L198.247 188.938L199.932 189.094L200.117 187.103ZM198.432 186.946C198.433 186.946 198.679 186.965 198.883 187.21C199.086 187.455 199.059 187.701 199.059 187.701L197.068 187.516C197.047 187.732 197.051 188.134 197.344 188.487C197.637 188.84 198.031 188.918 198.247 188.938L198.432 186.946ZM199.059 187.701L199.179 186.411L197.187 186.226L197.068 187.516L199.059 187.701ZM199.179 186.411C199.179 186.412 199.16 186.658 198.915 186.862C198.67 187.065 198.424 187.038 198.424 187.038L198.609 185.046C198.393 185.026 197.991 185.03 197.638 185.323C197.285 185.616 197.207 186.01 197.187 186.226L199.179 186.411ZM198.424 187.038L203.765 187.534L203.95 185.542L198.609 185.046L198.424 187.038ZM203.765 187.534C203.732 187.531 203.511 187.505 203.322 187.287C203.124 187.059 203.134 186.824 203.138 186.779L205.129 186.964C205.153 186.703 205.123 186.311 204.832 185.975C204.548 185.649 204.179 185.564 203.95 185.542L203.765 187.534ZM203.138 186.779L203.018 188.069L205.009 188.254L205.129 186.964L203.138 186.779ZM203.018 188.069C203.018 188.069 203.037 187.81 203.297 187.604C203.42 187.507 203.544 187.466 203.628 187.45C203.669 187.442 203.701 187.44 203.721 187.44C203.741 187.439 203.753 187.44 203.755 187.441L203.57 189.432C203.777 189.451 204.181 189.456 204.539 189.171C204.911 188.877 204.989 188.469 205.009 188.254L203.018 188.069ZM203.755 187.441L202.017 187.279L201.832 189.271L203.57 189.432L203.755 187.441ZM200.928 188.182L200.116 196.929L202.108 197.114L202.92 188.367L200.928 188.182ZM201.019 198.017L206.504 198.526L206.689 196.535L201.204 196.026L201.019 198.017ZM207.562 197.789L208.337 194.897L206.405 194.379L205.63 197.272L207.562 197.789ZM208.323 194.944C208.323 194.945 208.31 194.987 208.275 195.044C208.238 195.108 208.174 195.19 208.074 195.262C207.861 195.416 207.667 195.398 207.662 195.398L207.847 193.407C207.591 193.383 207.231 193.404 206.902 193.642C206.584 193.872 206.466 194.185 206.419 194.332L208.323 194.944ZM207.662 195.398L208.343 195.461L208.528 193.47L207.847 193.407L207.662 195.398ZM208.343 195.461C208.394 195.466 208.16 195.463 207.952 195.233C207.722 194.98 207.752 194.709 207.752 194.709L209.743 194.894C209.763 194.679 209.763 194.253 209.434 193.89C209.128 193.552 208.728 193.488 208.528 193.47L208.343 195.461ZM207.752 194.709L207.334 199.208L209.326 199.393L209.743 194.894L207.752 194.709ZM207.334 199.208C207.336 199.184 207.352 199.013 207.505 198.839C207.591 198.743 207.702 198.666 207.829 198.621C207.951 198.578 208.051 198.578 208.107 198.583L207.922 200.574C208.296 200.609 208.707 200.499 209.004 200.164C209.254 199.881 209.31 199.56 209.326 199.393L207.334 199.208ZM211.621 197.997L211.529 198.993L212.525 199.086L212.617 198.09L211.621 197.997ZM212.434 189.251L213.43 189.344L213.522 188.348L212.526 188.255L212.434 189.251ZM214.334 189.428L214.426 188.432L213.43 188.339L213.338 189.335L214.334 189.428ZM213.521 198.174L212.526 198.081L212.433 199.077L213.429 199.17L213.521 198.174ZM219.006 198.683L218.913 199.679L219.753 199.757L219.972 198.942L219.006 198.683ZM219.781 195.791L218.829 195.484L218.821 195.508L218.815 195.532L219.781 195.791ZM220.517 199.736L209.853 198.745L209.668 200.736L220.332 201.727L220.517 199.736ZM209.853 198.745C209.853 198.745 210.1 198.763 210.303 199.009C210.507 199.254 210.48 199.5 210.48 199.5L208.488 199.315C208.468 199.531 208.471 199.933 208.764 200.286C209.058 200.639 209.452 200.716 209.668 200.736L209.853 198.745ZM210.48 199.5L210.599 198.21L208.608 198.025L208.488 199.315L210.48 199.5ZM210.599 198.21C210.599 198.21 210.581 198.457 210.336 198.66C210.09 198.864 209.845 198.837 209.844 198.837L210.029 196.845C209.814 196.825 209.411 196.828 209.058 197.121C208.705 197.415 208.628 197.809 208.608 198.025L210.599 198.21ZM209.844 198.837L211.529 198.993L211.714 197.002L210.029 196.845L209.844 198.837ZM212.617 198.09L213.43 189.344L211.438 189.159L210.626 197.905L212.617 198.09ZM212.526 188.255L210.842 188.099L210.657 190.09L212.341 190.247L212.526 188.255ZM210.842 188.099C210.842 188.099 211.089 188.117 211.292 188.363C211.496 188.608 211.468 188.853 211.468 188.854L209.477 188.669C209.457 188.885 209.46 189.287 209.753 189.64C210.046 189.993 210.441 190.07 210.657 190.09L210.842 188.099ZM211.468 188.854L211.588 187.564L209.597 187.379L209.477 188.669L211.468 188.854ZM211.588 187.564C211.588 187.564 211.57 187.811 211.325 188.014C211.079 188.218 210.834 188.191 210.833 188.19L211.018 186.199C210.802 186.179 210.4 186.182 210.047 186.475C209.694 186.768 209.617 187.163 209.597 187.379L211.588 187.564ZM210.833 188.19L216.174 188.687L216.359 186.695L211.018 186.199L210.833 188.19ZM216.174 188.687C216.142 188.684 215.921 188.658 215.731 188.439C215.534 188.212 215.543 187.977 215.547 187.931L217.539 188.116C217.563 187.856 217.533 187.463 217.241 187.128C216.958 186.801 216.588 186.716 216.359 186.695L216.174 188.687ZM215.547 187.931L215.427 189.222L217.419 189.407L217.539 188.116L215.547 187.931ZM215.427 189.222C215.427 189.222 215.447 188.963 215.706 188.757C215.829 188.659 215.953 188.619 216.038 188.603C216.079 188.595 216.111 188.593 216.13 188.592C216.15 188.592 216.163 188.593 216.165 188.593L215.98 190.585C216.186 190.604 216.59 190.609 216.949 190.324C217.321 190.029 217.399 189.622 217.419 189.407L215.427 189.222ZM216.165 188.593L214.426 188.432L214.241 190.423L215.98 190.585L216.165 188.593ZM213.338 189.335L212.526 198.081L214.517 198.266L215.329 189.52L213.338 189.335ZM213.429 199.17L218.913 199.679L219.098 197.688L213.614 197.178L213.429 199.17ZM219.972 198.942L220.746 196.049L218.815 195.532L218.04 198.425L219.972 198.942ZM220.732 196.097C220.732 196.098 220.719 196.14 220.685 196.197C220.647 196.26 220.583 196.343 220.483 196.415C220.27 196.569 220.076 196.551 220.071 196.551L220.256 194.559C220.001 194.536 219.64 194.557 219.311 194.795C218.993 195.024 218.876 195.337 218.829 195.484L220.732 196.097ZM220.071 196.551L220.753 196.614L220.938 194.623L220.256 194.559L220.071 196.551ZM220.753 196.614C220.804 196.619 220.57 196.615 220.362 196.386C220.132 196.132 220.162 195.862 220.162 195.862L222.153 196.047C222.173 195.832 222.172 195.405 221.844 195.043C221.537 194.705 221.137 194.641 220.938 194.623L220.753 196.614ZM220.162 195.862L219.744 200.361L221.735 200.546L222.153 196.047L220.162 195.862ZM219.744 200.361C219.746 200.337 219.761 200.166 219.915 199.992C220 199.896 220.112 199.818 220.238 199.774C220.36 199.731 220.461 199.73 220.517 199.736L220.332 201.727C220.705 201.762 221.117 201.652 221.414 201.316C221.663 201.034 221.72 200.713 221.735 200.546L219.744 200.361ZM234.024 200.151L233.385 199.381L233.352 199.409L233.321 199.439L234.024 200.151ZM234.786 191.165L235.556 190.526L235.556 190.526L234.786 191.165ZM234.487 194.391L234.714 195.365L234.714 195.365L234.487 194.391ZM233.877 194.533L233.65 193.559L233.632 193.563L233.614 193.568L233.877 194.533ZM233.638 194.384L232.642 194.479L232.651 194.575L232.679 194.668L233.638 194.384ZM233.654 197.513L232.764 197.057L232.751 197.084L232.739 197.11L233.654 197.513ZM233.826 197.42L234.087 196.455L234.004 196.433L233.918 196.425L233.826 197.42ZM234.231 197.53L234.517 196.572L234.505 196.569L234.493 196.565L234.231 197.53ZM233.348 197.593L233.146 199.762L235.138 199.947L235.339 197.778L233.348 197.593ZM233.146 199.762C233.146 199.762 233.147 199.756 233.149 199.746C233.151 199.736 233.155 199.715 233.165 199.687C233.181 199.642 233.235 199.506 233.385 199.381L234.663 200.92C234.891 200.73 234.999 200.5 235.052 200.35C235.107 200.194 235.128 200.048 235.138 199.947L233.146 199.762ZM233.321 199.439C232.8 199.954 231.13 200.938 228.604 200.704L228.419 202.695C231.52 202.983 233.775 201.801 234.727 200.862L233.321 199.439ZM228.604 200.704C226.908 200.546 225.616 199.918 224.788 198.956C223.965 198.001 223.499 196.599 223.677 194.688L221.685 194.503C221.468 196.84 222.026 198.814 223.272 200.261C224.512 201.701 226.332 202.501 228.419 202.695L228.604 200.704ZM223.677 194.688C223.846 192.861 224.547 191.57 225.549 190.766C226.557 189.958 227.987 189.549 229.787 189.716L229.972 187.725C227.775 187.52 225.796 188.005 224.298 189.206C222.796 190.411 221.895 192.244 221.685 194.503L223.677 194.688ZM229.787 189.716C232.356 189.955 233.696 191.417 234.017 191.803L235.556 190.526C235.063 189.933 233.282 188.032 229.972 187.725L229.787 189.716ZM234.017 191.803C234.032 191.821 233.988 191.774 233.954 191.671C233.936 191.617 233.926 191.562 233.922 191.508C233.918 191.457 233.921 191.42 233.922 191.41L235.913 191.595C235.925 191.469 235.929 191.275 235.854 191.046C235.785 190.836 235.671 190.664 235.556 190.526L234.017 191.803ZM233.922 191.41L233.672 194.098L235.664 194.283L235.913 191.595L233.922 191.41ZM233.672 194.098C233.683 193.981 233.732 193.807 233.874 193.65C234.013 193.497 234.169 193.438 234.26 193.417L234.714 195.365C234.915 195.318 235.157 195.212 235.356 194.993C235.559 194.769 235.643 194.508 235.664 194.283L233.672 194.098ZM234.26 193.417L233.65 193.559L234.104 195.507L234.714 195.365L234.26 193.417ZM233.614 193.568C233.691 193.547 233.81 193.53 233.954 193.555C234.103 193.581 234.235 193.645 234.341 193.731C234.532 193.886 234.586 194.065 234.596 194.1L232.679 194.668C232.717 194.797 232.816 195.07 233.083 195.286C233.408 195.549 233.805 195.589 234.14 195.498L233.614 193.568ZM234.633 194.29C234.497 192.852 233.912 191.731 232.976 190.954C232.062 190.196 230.901 189.835 229.714 189.725L229.529 191.717C230.457 191.803 231.189 192.071 231.698 192.493C232.184 192.896 232.55 193.509 232.642 194.479L234.633 194.29ZM229.714 189.725C228.407 189.604 226.975 189.819 225.798 190.608C224.586 191.421 223.763 192.765 223.589 194.644L225.58 194.829C225.705 193.481 226.254 192.711 226.912 192.269C227.605 191.804 228.541 191.625 229.529 191.717L229.714 189.725ZM223.589 194.644C223.416 196.5 223.944 197.982 224.957 199.025C225.946 200.045 227.304 200.549 228.643 200.673L228.828 198.682C227.836 198.59 226.969 198.227 226.392 197.632C225.837 197.061 225.454 196.181 225.58 194.829L223.589 194.644ZM228.643 200.673C231.31 200.921 233.64 200.029 234.57 197.916L232.739 197.11C232.293 198.124 231.035 198.887 228.828 198.682L228.643 200.673ZM234.544 197.969C234.497 198.062 234.381 198.232 234.151 198.339C233.943 198.436 233.765 198.419 233.733 198.416L233.918 196.425C233.815 196.415 233.573 196.402 233.308 196.525C233.022 196.658 232.856 196.878 232.764 197.057L234.544 197.969ZM233.564 198.386L233.969 198.496L234.493 196.565L234.087 196.455L233.564 198.386ZM233.945 198.489C233.92 198.481 233.697 198.417 233.521 198.182C233.33 197.925 233.341 197.667 233.348 197.593L235.339 197.778C235.354 197.615 235.353 197.292 235.125 196.987C234.914 196.703 234.631 196.606 234.517 196.572L233.945 198.489Z" fill="#4360F7" mask="url(#path-7-outside-2_314_12)"/>
</g>
<defs>
<filter id="filter0_f_314_12" x="47.748" y="0.951721" width="153.736" height="144.425" filterUnits="userSpaceOnUse" color-interpolation-filters="sRGB">
<feFlood flood-opacity="0" result="BackgroundImageFix"/>
<feBlend mode="normal" in="SourceGraphic" in2="BackgroundImageFix" result="shape"/>
<feGaussianBlur stdDeviation="7" result="effect1_foregroundBlur_314_12"/>
</filter>
<filter id="filter1_d_314_12" x="63.9785" y="127.957" width="28.9395" height="28.9121" filterUnits="userSpaceOnUse" color-interpolation-filters="sRGB">
<feFlood flood-opacity="0" result="BackgroundImageFix"/>
<feColorMatrix in="SourceAlpha" type="matrix" values="0 0 0 0 0 0 0 0 0 0 0 0 0 0 0 0 0 0 127 0" result="hardAlpha"/>
<feOffset/>
<feGaussianBlur stdDeviation="3.5"/>
<feComposite in2="hardAlpha" operator="out"/>
<feColorMatrix type="matrix" values="0 0 0 0 1 0 0 0 0 0.129412 0 0 0 0 0.913725 0 0 0 1 0"/>
<feBlend mode="normal" in2="BackgroundImageFix" result="effect1_dropShadow_314_12"/>
<feBlend mode="normal" in="SourceGraphic" in2="effect1_dropShadow_314_12" result="shape"/>
</filter>
<filter id="filter2_d_314_12" x="0.697266" y="124.081" width="253.893" height="76.9151" filterUnits="userSpaceOnUse" color-interpolation-filters="sRGB">
<feFlood flood-opacity="0" result="BackgroundImageFix"/>
<feColorMatrix in="SourceAlpha" type="matrix" values="0 0 0 0 0 0 0 0 0 0 0 0 0 0 0 0 0 0 127 0" result="hardAlpha"/>
<feOffset/>
<feGaussianBlur stdDeviation="3.5"/>
<feComposite in2="hardAlpha" operator="out"/>
<feColorMatrix type="matrix" values="0 0 0 0 1 0 0 0 0 0.130794 0 0 0 0 0.912643 0 0 0 1 0"/>
<feBlend mode="normal" in2="BackgroundImageFix" result="effect1_dropShadow_314_12"/>
<feBlend mode="normal" in="SourceGraphic" in2="effect1_dropShadow_314_12" result="shape"/>
</filter>
<filter id="filter3_d_314_12" x="190.025" y="178.781" width="52.1055" height="30.4213" filterUnits="userSpaceOnUse" color-interpolation-filters="sRGB">
<feFlood flood-opacity="0" result="BackgroundImageFix"/>
<feColorMatrix in="SourceAlpha" type="matrix" values="0 0 0 0 0 0 0 0 0 0 0 0 0 0 0 0 0 0 127 0" result="hardAlpha"/>
<feOffset/>
<feGaussianBlur stdDeviation="3.5"/>
<feComposite in2="hardAlpha" operator="out"/>
<feColorMatrix type="matrix" values="0 0 0 0 0.262745 0 0 0 0 0.376471 0 0 0 0 0.968627 0 0 0 1 0"/>
<feBlend mode="normal" in2="BackgroundImageFix" result="effect1_dropShadow_314_12"/>
<feBlend mode="normal" in="SourceGraphic" in2="effect1_dropShadow_314_12" result="shape"/>
</filter>
</defs>
</svg>